<svg xmlns="http://www.w3.org/2000/svg" viewBox="0 0 32 32" fill="none">
  <rect width="32" height="32" rx="7" fill="#1B4D3E"/>
  <!-- Flask body -->
  <path d="M12 8h8v1.5l4.5 9.5c.8 1.7-.2 3.5-2 3.5H9.5c-1.8 0-2.8-1.8-2-3.5L12 9.5V8z" fill="none" stroke="#fff" stroke-width="1.5" stroke-linejoin="round"/>
  <!-- Flask neck lines -->
  <line x1="12" y1="8" x2="20" y2="8" stroke="#fff" stroke-width="1.5" stroke-linecap="round"/>
  <line x1="13.5" y1="11" x2="18.5" y2="11" stroke="rgba(255,255,255,0.4)" stroke-width="1"/>
  <!-- Liquid fill -->
  <path d="M9.8 19.5c-.4.8 0 3 2 3h8.4c2 0 2.4-2.2 2-3l-1.8-4H11.6l-1.8 4z" fill="#4ade80" opacity="0.9"/>
  <!-- Bubbles -->
  <circle cx="13.5" cy="20.5" r="0.8" fill="#fff" opacity="0.7"/>
  <circle cx="16" cy="19" r="0.6" fill="#fff" opacity="0.5"/>
  <circle cx="18" cy="21" r="0.5" fill="#fff" opacity="0.6"/>
</svg>
